<svg xmlns="http://www.w3.org/2000/svg" viewBox="0 0 96 96" role="img" aria-labelledby="title">
<title>Huawei</title>
<rect width="96" height="96" rx="20" fill="#fff"/>
<path fill="#C81D25" d="M48 16c2 6 4 11 4 18 0 6-2 12-4 18-2-6-4-12-4-18 0-7 2-12 4-18Zm-11 4c2 6 3 11 2 17-1 6-4 11-7 17-1-7-2-12 0-18 1-6 3-11 5-16Zm22 0c2 5 4 10 5 16 2 6 1 11 0 18-3-6-6-11-7-17-1-6 0-11 2-17ZM25 30c3 5 6 9 8 15 1 6 0 11-1 17-5-5-9-9-11-15-1-6 0-11 4-17Zm46 0c4 6 5 11 4 17-2 6-6 10-11 15-1-6-2-11-1-17 2-6 5-10 8-15ZM33 66c5-2 10-3 15-3s10 1 15 3c-5 5-10 9-15 12-5-3-10-7-15-12Z"/>
</svg>
