<svg xmlns="http://www.w3.org/2000/svg" viewBox="0 0 96 96">
  <rect width="96" height="96" rx="16" fill="#111111"/>
  <path fill="#ffffff" d="M59.3 26.8c-2 .2-4.5 1.4-6 3-1.4 1.5-2.6 3.9-2.2 6.3 2.2.2 4.5-1.2 5.9-2.8 1.4-1.7 2.4-4.1 2.3-6.5zM72.7 64.4c-1.1 2.5-1.7 3.6-3.1 5.7-2 3.1-4.9 6.8-8.4 6.8-3.1 0-3.9-2-8.1-2-4.1 0-5 2-8.1 2-3.5 0-6.2-3.3-8.2-6.4-5.6-8.6-6.2-18.7-2.7-24.1 2.5-3.8 6.4-6.1 10.1-6.1 3.9 0 6.3 2.1 9.5 2.1 3.1 0 5-2.1 9.4-2.1 3.3 0 6.8 1.8 9.3 4.8-8.2 4.5-6.9 16.4-.7 19.3z"/>
</svg>
